<svg xmlns="http://www.w3.org/2000/svg" width="189" height="36" viewBox="0 0 189 36"><g fill="none" fill-rule="evenodd"><path fill="#9BA3AF" d="M42.15 1.84h4.473L51.58 9.7l4.958-7.862h4.472V20.43h-4.12V8.293l-5.31 7.942h-.106L46.22 8.373V20.43h-4.07zm38.257 9.348v-.053c0-3.188-2.37-5.844-5.712-5.844-3.34 0-5.657 2.605-5.657 5.79v.055c0 3.187 2.37 5.843 5.71 5.843 3.342 0 5.66-2.603 5.66-5.79m-15.708 0v-.053c0-5.286 4.23-9.615 10.05-9.615s9.995 4.276 9.995 9.562v.053c0 5.285-4.23 9.615-10.05 9.615S64.7 16.473 64.7 11.188m23.734-9.35h3.826l8.836 11.448V1.84h4.096v18.59h-3.53L92.53 8.61v11.82h-4.095zm25.674 3.772h-5.738V1.838h15.626V5.61h-5.738v14.82h-4.15zm11.61-3.77h4.447l3.907 12.59L138.3 1.783h3.557l4.23 12.643 3.906-12.59h4.337l-6.44 18.726h-3.61L140.027 8.4l-4.257 12.165h-3.61zm39.82 10.81l-2.506-6.03-2.505 6.03h5.01zm-4.365-10.944H165l8.083 18.725h-4.338l-1.724-4.17h-7.974l-1.724 4.17h-4.23l8.082-18.724zm17.43 11.394l-7.247-11.26h4.85l4.5 7.463 4.58-7.463H190l-7.248 11.182v7.41h-4.15zM49.32 30.966l-2.4-5.31-2.413 5.31h4.813zm-2.94-6.678h1.115l4.812 10.486h-1.282l-1.237-2.753H44.04l-1.252 2.754h-1.222l4.813-10.486zm7.843 6.127V24.36h1.192v5.98c0 2.246 1.208 3.51 3.23 3.51 1.945 0 3.182-1.16 3.182-3.435V24.36h1.192v5.966c0 3.034-1.766 4.61-4.407 4.61-2.61 0-4.39-1.576-4.39-4.52m14.407-4.968h-3.545V24.36h8.298v1.087h-3.546v9.325H68.63zm16.053 4.15v-.03c0-2.365-1.75-4.3-4.164-4.3-2.415 0-4.134 1.904-4.134 4.27v.03c0 2.364 1.75 4.298 4.162 4.298 2.415 0 4.135-1.904 4.135-4.27m-9.535 0v-.03c0-2.87 2.188-5.383 5.4-5.383 3.214 0 5.372 2.485 5.372 5.355.015.015.015.015 0 .03 0 2.87-2.188 5.384-5.4 5.384-3.215 0-5.372-2.484-5.372-5.355m20.608-4.15H92.21V24.36h8.298v1.087h-3.546v9.325h-1.207zm11.42 4.224c1.584 0 2.717-.802 2.717-2.14v-.03c0-1.28-.996-2.052-2.702-2.052h-3.257v4.223h3.243zm-4.435-5.31h4.542c1.298 0 2.34.39 3.002 1.043.514.506.815 1.234.815 2.053v.03c0 1.725-1.207 2.736-2.867 3.034l3.243 4.253h-1.463l-3.063-4.045h-3.017v4.045h-1.192v-10.41zm17.758 6.606l-2.4-5.31-2.413 5.31h4.813zm-2.942-6.678h1.117l4.812 10.486h-1.282l-1.238-2.753h-5.748l-1.252 2.754h-1.222l4.813-10.486zm8.01.074h1.117l6.653 8.344v-8.344h1.162v10.412h-.95l-6.82-8.538v8.538h-1.16zm11.224 8.894l.74-.863c1.1.982 2.158 1.473 3.622 1.473 1.417 0 2.353-.744 2.353-1.77v-.03c0-.966-.53-1.517-2.746-1.978-2.43-.52-3.546-1.294-3.546-3.005v-.03c0-1.635 1.463-2.84 3.47-2.84 1.538 0 2.64.43 3.71 1.28l-.694.906c-.98-.79-1.96-1.13-3.047-1.13-1.373 0-2.248.743-2.248 1.68v.03c0 .98.543 1.53 2.867 2.023 2.354.505 3.44 1.353 3.44 2.944v.03c0 1.784-1.51 2.945-3.607 2.945-1.674 0-3.046-.55-4.314-1.666m14.153-3.228c1.75 0 2.896-.922 2.896-2.29v-.03c0-1.487-1.133-2.26-2.838-2.26h-2.67v4.58h2.61zm-3.802-5.666h3.954c2.382 0 3.95 1.25 3.95 3.302v.03c0 2.246-1.9 3.405-4.147 3.405h-2.565v3.674h-1.19V24.362zm19.145 5.235v-.03c0-2.364-1.75-4.298-4.164-4.298-2.413 0-4.132 1.902-4.132 4.27v.027c0 2.365 1.75 4.3 4.164 4.3 2.413 0 4.133-1.905 4.133-4.27m-9.534 0v-.03c0-2.87 2.188-5.384 5.4-5.384 3.215 0 5.37 2.485 5.37 5.355.017.015.017.015 0 .03 0 2.87-2.185 5.384-5.4 5.384-3.212 0-5.37-2.484-5.37-5.355m17.727.074c1.584 0 2.716-.802 2.716-2.14v-.03c0-1.28-.995-2.052-2.7-2.052h-3.26v4.223h3.244zm-4.435-5.31h4.54c1.298 0 2.34.39 3.003 1.043.513.506.815 1.234.815 2.053v.03c0 1.725-1.207 2.736-2.866 3.034l3.243 4.253h-1.463l-3.063-4.045h-3.016v4.045h-1.192v-10.41zm13.698 1.088h-3.545V24.36h8.298v1.087h-3.545v9.325h-1.207zM17.927.563A17.978 17.978 0 0 0 3.202 8.16c2.72-1.208 5.623-1.93 8.59-2.397 2.367-.374 4.783-.48 7.183-.603.787-.04 1.636.122 2.38.397 1.675.618 2.01 2.028.782 3.282-2.57 2.624-5.187 5.2-7.78 7.8-.355.354-.685.732-.914 1.237.87-.64 1.72-1.31 2.616-1.914 3.214-2.166 6.44-4.316 9.675-6.455.447-.296.95-.515 1.44-.736 1.355-.61 2.414-.373 3.207.698.69.935.562 1.722-.51 2.948-2.034 2.33-4.084 4.65-6.113 6.987-.517.594-.976 1.236-1.33 1.98 1.622-1.285 3.233-2.584 4.873-3.847 1.282-.987 2.584-1.95 3.907-2.883.773-.546 1.467-.356 2.162.533.525.67.72 1.32-.024 2.032-2.2 2.104-4.24 4.342-5.484 7.153-.346.785-.564 1.642-.726 2.487-.154.802-.267 1.685 1.056 1.77-.882.738-2.063.506-2.758-.464-.83-1.16-.984-2.51-.4-3.724.923-1.915 2.077-3.723 3.16-5.562.248-.423.602-.784.78-1.323-1.3 1.028-2.622 2.026-3.89 3.09-2.292 1.92-4.84 3.584-6.512 6.148-.385.59-.897.516-1.402.153-.83-.596-1.126-1.552-.52-2.485 1.642-2.528 3.318-5.042 5.116-7.464 1.62-2.18 3.42-4.23 5.303-6.537-.435.195-.67.274-.876.397-5.446 3.227-10.573 6.9-15.41 10.95-1.382 1.158-2.573 2.568-3.697 3.982-.54.68-.716 1.64-1.108 2.595-1.694-.226-2.862-2.123-1.91-3.748a31.283 31.283 0 0 1 3.662-5.03c3.727-4.16 7.574-8.213 11.373-12.31.176-.19.347-.383.63-.694-2.798.057-5.387.434-7.92 1.148C8.28 8.75 4.89 10.08 1.96 12.34c-.464.357-.908.757-1.312 1.186a17.412 17.412 0 0 0-.57 3.088c.005.003.008.007.012.012H.077C.03 17.155 0 17.69 0 18.235c0 9.76 8.026 17.673 17.927 17.673 9.9 0 17.927-7.914 17.927-17.674S27.827.562 17.927.562"/><path fill="#FFF" d="M1.96 12.34c2.93-2.258 6.32-3.588 9.855-4.585 2.532-.714 5.122-1.09 7.92-1.148-.283.31-.454.504-.63.694-3.8 4.098-7.646 8.152-11.372 12.312A31.248 31.248 0 0 0 4.07 24.64c-.953 1.625.217 3.522 1.91 3.748.39-.956.57-1.915 1.108-2.595 1.123-1.414 2.314-2.824 3.696-3.982 4.838-4.05 9.965-7.722 15.41-10.95.207-.122.44-.2.877-.396C25.19 12.77 23.39 14.82 21.77 17c-1.8 2.422-3.474 4.936-5.117 7.464-.605.933-.307 1.89.52 2.485.507.362 1.02.435 1.404-.154 1.673-2.564 4.22-4.227 6.512-6.148 1.267-1.064 2.59-2.062 3.89-3.09-.178.54-.532.9-.78 1.323-1.083 1.84-2.237 3.648-3.16 5.563-.584 1.214-.43 2.565.4 3.724.694.97 1.876 1.202 2.757.465-1.322-.086-1.21-.97-1.056-1.77.163-.846.38-1.703.728-2.488 1.243-2.81 3.284-5.05 5.482-7.152.744-.712.55-1.363.025-2.033-.696-.89-1.388-1.08-2.162-.534a115.088 115.088 0 0 0-3.907 2.883c-1.64 1.262-3.25 2.56-4.875 3.846.356-.744.815-1.386 1.33-1.98 2.03-2.337 4.08-4.656 6.115-6.987 1.07-1.227 1.2-2.014.51-2.95-.794-1.07-1.853-1.31-3.207-.697-.492.22-.994.44-1.44.736-3.235 2.14-6.462 4.288-9.677 6.454-.897.604-1.746 1.274-2.617 1.914.23-.505.56-.883.913-1.238 2.594-2.6 5.213-5.175 7.78-7.8 1.228-1.254.894-2.664-.78-3.283-.745-.274-1.594-.436-2.38-.396-2.4.125-4.817.23-7.185.604-2.965.468-5.87 1.188-8.59 2.397a17.483 17.483 0 0 0-2.55 5.367c.404-.43.846-.83 1.31-1.187"/><path fill="#9BA3AF" d="M.078 16.615v.01H.09l-.012-.01"/></g></svg>